<svg width="90" height="6" viewBox="0 0 90 6" fill="none" xmlns="http://www.w3.org/2000/svg">
<path d="M5.6 5.032C4.85333 5.24533 4.096 5.352 3.328 5.352C1.74933 5.352 0.96 4.69067 0.96 3.368C0.96 2.94133 1.152 2.03467 1.536 0.648C2.28267 0.434666 3.04 0.328 3.808 0.328C5.38667 0.328 6.176 0.989333 6.176 2.312C6.176 2.73867 5.984 3.64533 5.6 5.032ZM33.3813 5.032C32.6346 5.24533 31.8773 5.352 31.1093 5.352C29.5306 5.352 28.7413 4.69067 28.7413 3.368C28.7413 2.94133 28.9333 2.03467 29.3173 0.648C30.0639 0.434666 30.8213 0.328 31.5893 0.328C33.1679 0.328 33.9573 0.989333 33.9573 2.312C33.9573 2.73867 33.7653 3.64533 33.3813 5.032ZM61.1625 5.032C60.4158 5.24533 59.6585 5.352 58.8905 5.352C57.3118 5.352 56.5225 4.69067 56.5225 3.368C56.5225 2.94133 56.7145 2.03467 57.0985 0.648C57.8452 0.434666 58.6025 0.328 59.3705 0.328C60.9492 0.328 61.7385 0.989333 61.7385 2.312C61.7385 2.73867 61.5465 3.64533 61.1625 5.032ZM88.9438 5.032C88.1971 5.24533 87.4398 5.352 86.6718 5.352C85.0931 5.352 84.3038 4.69067 84.3038 3.368C84.3038 2.94133 84.4958 2.03467 84.8798 0.648C85.6264 0.434666 86.3838 0.328 87.1518 0.328C88.7304 0.328 89.5198 0.989333 89.5198 2.312C89.5198 2.73867 89.3278 3.64533 88.9438 5.032Z" fill="#F4A332"/>
</svg>
